<svg width="550" height="342" viewBox="0 0 550 342" fill="none" xmlns="http://www.w3.org/2000/svg">
<g clip-path="url(#clip0_31_434)">
<path d="M520.106 328.506C518.458 336.056 511.789 341.422 504.046 341.422H328.889C324.711 341.422 320.572 340.349 316.931 338.279L208.847 277.683C179.45 261.202 142.31 276.035 132.384 308.23L123.951 335.52C122.84 339.008 119.62 341.422 115.941 341.422H8.35538C2.72122 341.422 -1.30317 335.941 0.383241 330.575L18.0139 273.506C50.5158 168.296 171.784 119.85 267.833 173.701L512.095 310.683C518.419 314.21 521.639 321.454 520.106 328.544V328.506Z" fill="#D9D9D9"/>
<path d="M545.44 214.366L540.496 236.136L537.928 247.366L536.97 251.62L532.141 272.892C531.336 276.572 527.158 278.411 523.862 276.572L425.437 221.38C423.252 220.153 422.141 217.624 422.677 215.171L429.001 187.345C436.437 154.46 411.677 123.108 377.987 122.725L70.9446 118.509C67.1502 118.47 64.4673 114.714 65.6171 111.111L99.997 3.94738C100.764 1.57106 102.987 -0.0386953 105.439 -0.0003677L378.792 3.18082C488.907 4.48396 569.779 106.972 545.44 214.366Z" fill="#1D9E75"/>
<path d="M540.496 236.137L537.928 247.367L536.97 251.621L540.381 236.022L540.496 236.137Z" fill="#1D9E75"/>
</g>
<defs>
<clipPath id="clip0_31_434">
<rect width="549.81" height="341.422" fill="white"/>
</clipPath>
</defs>
</svg>
