<svg width="2145" height="342" viewBox="0 0 2145 342" fill="none" xmlns="http://www.w3.org/2000/svg">
<g clip-path="url(#clip0_31_455)">
<path d="M520.106 328.506C518.458 336.057 511.789 341.422 504.047 341.422H328.89C324.712 341.422 320.573 340.349 316.932 338.28L208.848 277.684C179.451 261.203 142.311 276.036 132.384 308.231L123.952 335.52C122.841 339.008 119.621 341.422 115.942 341.422H8.35612C2.72196 341.422 -1.30244 335.942 0.383973 330.576L18.0147 273.506C50.5165 168.297 171.785 119.851 267.834 173.701L512.096 310.684C518.42 314.21 521.64 321.454 520.106 328.544V328.506Z" fill="white"/>
<path d="M545.44 214.366L540.495 236.136L537.928 247.366L536.969 251.621L532.14 272.893C531.335 276.572 527.157 278.412 523.861 276.572L425.436 221.38C423.251 220.154 422.14 217.624 422.676 215.171L429 187.345C436.436 154.46 411.676 123.108 377.986 122.725L70.9439 118.509C67.1495 118.471 64.4665 114.714 65.6164 111.112L99.9962 3.94768C100.763 1.57137 102.986 -0.0383901 105.439 -6.25246e-05L378.791 3.18113C488.907 4.48427 569.778 106.972 545.44 214.366Z" fill="white"/>
<path d="M540.496 236.136L537.928 247.366L536.97 251.621L540.381 236.021L540.496 236.136Z" fill="white"/>
</g>
<path d="M956.244 23.6157C1023.89 23.6157 1053.85 54.0337 1053.85 116.682V143.015C1053.85 195.681 1032.97 226.548 988.02 235.627L1063.84 329.603C1067.47 334.142 1065.2 341.408 1057.93 341.408H997.099C989.832 341.408 987.565 339.59 984.389 335.505L912.208 243.343H768.293V331.415C768.293 338.227 765.117 341.403 758.305 341.403H709.275C702.463 341.403 699.287 338.227 699.287 331.415V37.234C699.287 28.1552 703.827 23.6157 712.905 23.6157H956.244ZM942.171 183.421C973.043 183.421 984.395 172.524 984.395 145.288V126.221C984.395 98.5298 972.589 87.1785 942.171 87.1785H774.196C770.111 87.1785 768.293 88.542 768.293 92.1724V183.426H942.171V183.421Z" fill="white"/>
<path d="M1140.12 23.6157C1143.75 23.6157 1145.11 24.9792 1146.47 29.5186L1221.38 273.766C1222.29 276.038 1223.2 276.942 1225.01 276.942H1227.28C1229.1 276.942 1230.01 276.033 1230.92 273.766L1303.1 49.9487C1309.01 30.4276 1319.45 23.6157 1336.7 23.6157H1384.82C1404.79 23.6157 1414.78 30.4276 1420.68 49.9487L1494.23 273.766C1495.14 276.038 1496.05 276.942 1498.31 276.942H1500.13C1502.4 276.942 1503.31 276.033 1504.22 273.766L1577.76 29.5186C1579.13 24.9792 1581.39 23.6157 1584.57 23.6157H1644.5C1648.59 23.6157 1649.95 28.1552 1648.13 34.058L1562.78 306.905C1554.61 333.693 1545.53 341.408 1527.82 341.408H1471.53C1453.82 341.408 1444.74 333.693 1436.57 306.905L1366.65 91.2581C1366.2 88.9858 1365.29 88.0821 1363.48 88.0821H1361.21C1359.39 88.0821 1358.03 88.9911 1357.58 91.2581L1287.66 306.905C1279.49 334.147 1270.86 341.408 1253.16 341.408H1199.13C1178.7 341.408 1169.62 334.597 1161.45 306.905L1077.01 34.058C1075.19 27.7007 1075.65 23.6157 1080.64 23.6157H1140.12Z" fill="white"/>
<path d="M1840.18 23.6157C1863.78 23.6157 1877.41 30.4276 1892.39 58.1186L2042.66 330.966C2045.84 337.323 2044.48 341.408 2037.21 341.408H1979.56C1973.65 341.408 1970.93 340.045 1969.11 335.96L1939.15 280.572H1721.69L1692.18 335.96C1689.91 340.045 1687.64 341.408 1681.74 341.408H1622.27C1615.01 341.408 1613.64 337.323 1616.82 330.966L1765.73 58.1186C1780.25 30.4276 1794.33 23.6157 1813.39 23.6157H1840.18H1840.18ZM1906.92 221.554L1836.55 91.2581C1835.18 88.9858 1833.37 88.0821 1831.1 88.0821H1828.38C1826.1 88.0821 1824.75 88.9911 1823.38 91.2581L1753.47 221.554H1906.92Z" fill="white"/>
<path d="M2134.82 92.1718C2141.18 92.1718 2144.81 95.8023 2144.81 102.16V331.425C2144.81 338.237 2141.18 341.413 2134.82 341.413H2090.33C2083.52 341.413 2080.34 338.237 2080.34 331.425V102.154C2080.34 95.797 2083.52 92.1665 2090.33 92.1665H2134.82V92.1718Z" fill="white"/>
<path d="M2144.81 9.99686C2144.81 3.18504 2141.63 0.0090332 2134.82 0.0090332H2090.33C2083.52 0.0090332 2080.34 3.18504 2080.34 9.99686V53.1242C2080.34 59.936 2083.52 63.5665 2090.33 63.5665H2134.82C2141.63 63.5665 2144.81 59.936 2144.81 53.1242V9.99686Z" fill="white"/>
<defs>
<clipPath id="clip0_31_455">
<rect width="549.81" height="341.422" fill="white"/>
</clipPath>
</defs>
</svg>
